<svg width="1440" height="66" viewBox="0 0 1440 66" fill="none" xmlns="http://www.w3.org/2000/svg">
<path d="M32.9635 3.92759L0 2.59221V65.9934H1440V2.59221L1403.31 3.24026L1375.09 2.41547L1337.1 3.80977L1309.08 2.59221L1268.13 3.24026L1211.53 1.59068L1178.17 2.64131L1125.92 5.2237L1095.69 2.39583L1047.26 2.64131L1005.01 3.92759L962.469 1.9638L916.404 2.56276L871.736 4.52655L836.955 5.0666L785.497 2.59221L751.957 5.1746L696.005 6.31361L654.581 2.59221L605.927 2.70022L568.606 3.92759L523.665 2.59221L457.806 0L392.749 2.59221L320.627 3.92759L261.832 2.59221L228.713 0L177.128 2.59221H130.916L80.5819 1.9638L32.9635 3.92759Z" fill="#FFDB8E"/>
</svg>
