<svg width="33" height="32" viewBox="0 0 33 32" fill="none" xmlns="http://www.w3.org/2000/svg">
<path d="M16.0195 7.7956C11.4747 7.7956 7.80877 11.4587 7.80877 16C7.80877 20.5413 11.4747 24.2044 16.0195 24.2044C20.5643 24.2044 24.2302 20.5413 24.2302 16C24.2302 11.4587 20.5643 7.7956 16.0195 7.7956ZM16.0195 21.3339C13.0825 21.3339 10.6815 18.9419 10.6815 16C10.6815 13.0581 13.0754 10.6661 16.0195 10.6661C18.9636 10.6661 21.3575 13.0581 21.3575 16C21.3575 18.9419 18.9565 21.3339 16.0195 21.3339ZM26.4812 7.46C26.4812 8.52393 25.6237 9.37365 24.5661 9.37365C23.5013 9.37365 22.651 8.51679 22.651 7.46C22.651 6.40321 23.5085 5.54636 24.5661 5.54636C25.6237 5.54636 26.4812 6.40321 26.4812 7.46ZM31.9193 9.40221C31.7978 6.83878 31.2119 4.56811 29.3325 2.69731C27.4602 0.826509 25.1878 0.240991 22.6224 0.112462C19.9784 -0.0374874 12.0535 -0.0374874 9.40947 0.112462C6.85121 0.23385 4.57879 0.819368 2.69939 2.69017C0.820001 4.56097 0.241177 6.83164 0.112549 9.39507C-0.0375164 12.037 -0.0375164 19.9558 0.112549 22.5978C0.234031 25.1612 0.820001 27.4319 2.69939 29.3027C4.57879 31.1735 6.84406 31.759 9.40947 31.8875C12.0535 32.0375 19.9784 32.0375 22.6224 31.8875C25.1878 31.7661 27.4602 31.1806 29.3325 29.3027C31.2047 27.4319 31.7907 25.1612 31.9193 22.5978C32.0694 19.9558 32.0694 12.0442 31.9193 9.40221ZM28.5035 25.4326C27.9461 26.8321 26.8671 27.9103 25.4593 28.4744C23.3513 29.3098 18.3491 29.117 16.0195 29.117C13.6899 29.117 8.68058 29.3027 6.57966 28.4744C5.17905 27.9174 4.10001 26.8392 3.53547 25.4326C2.69939 23.3261 2.89234 18.3278 2.89234 16C2.89234 13.6722 2.70654 8.66674 3.53547 6.56744C4.09286 5.16791 5.1719 4.0897 6.57966 3.52561C8.68773 2.69017 13.6899 2.88296 16.0195 2.88296C18.3491 2.88296 23.3584 2.69731 25.4593 3.52561C26.86 4.08256 27.939 5.16077 28.5035 6.56744C29.3396 8.67388 29.1467 13.6722 29.1467 16C29.1467 18.3278 29.3396 23.3333 28.5035 25.4326Z" fill="#7C6CC9"/>
</svg>
