<svg width="252" height="64" viewBox="0 0 252 64" fill="none" xmlns="http://www.w3.org/2000/svg">
<path d="M0 2.0131C0 2.0131 36.4454 2.91338 59.85 3.01911C101.48 3.20717 124.531 0.069058 166.163 0.00107175C199.735 -0.0537537 252 2.0131 252 2.0131C252 2.0131 249.708 20.0195 249.638 31.6905C249.565 43.7516 252 62.3739 252 62.3739C252 62.3739 214.645 64.4125 190.575 63.8829C163.743 63.2925 149.695 61.1506 122.85 61.3678C97.8202 61.5704 84.8594 63.2073 59.85 63.8829C36.3992 64.5163 0 62.3739 0 62.3739C0 62.3739 2.43497 43.7516 2.3625 31.6905C2.29238 20.0195 0 2.0131 0 2.0131Z" fill="#FFDB8E"/>
</svg>
