<svg width="252" height="63" viewBox="0 0 252 63" fill="none" xmlns="http://www.w3.org/2000/svg">
<path d="M0 1.01329C0 1.01329 35.4454 0.913575 58.85 1.01931C100.48 1.20737 125.531 1.06925 167.163 1.00127C200.735 0.946442 252 1.01329 252 1.01329C252 1.01329 250.708 17.0197 250.638 28.6907C250.565 40.7518 252 61.3741 252 61.3741C252 61.3741 214.645 61.4127 190.575 60.8831C163.743 60.2927 147.695 62.1508 120.85 62.368C95.8202 62.5706 84.8594 60.2075 59.85 60.8831C36.3992 61.5165 0 61.3741 0 61.3741C0 61.3741 1.43497 44.7518 1.3625 32.6907C1.29238 21.0197 0 1.01329 0 1.01329Z" fill="#7C6CC9"/>
</svg>
