<svg xmlns="http://www.w3.org/2000/svg" viewBox="0 0 984.97 903.11"><g id="Réteg_2" data-name="Réteg 2"><g id="Layer_1" data-name="Layer 1"><path d="M676.33,903.11a8.53,8.53,0,0,0-1.81-.49c-19.42-1-38.29-5.13-57-10.06-17.6-4.64-35.13-9.58-52.73-14.28A416.77,416.77,0,0,0,521.72,869c-7-1.1-14.1-1.75-21.16-2.59a193.21,193.21,0,0,0-30.42-.85,228.24,228.24,0,0,0-22.89,2.12c-25.15,3.49-49.51,10.49-73.93,17.16-16.95,4.63-33.91,9.22-51.17,12.6a266.34,266.34,0,0,1-28.43,4.15,190,190,0,0,1-22.75.8c-29.39-1-55.74-10.26-78.53-29.11a146.26,146.26,0,0,1-52.15-89.64,161.48,161.48,0,0,1-2.29-27,183.19,183.19,0,0,1,4.46-39.93c6.38-28.45,18.41-54.41,34.68-78.49a278.72,278.72,0,0,1,49.15-55.22,399.58,399.58,0,0,0,51.87-54.81c16.29-20.57,31.17-42.18,46.31-63.6,10.43-14.77,21-29.45,32.41-43.46s23.73-27.27,37.9-38.64c13.66-11,28.62-19.56,45.46-24.67a125.09,125.09,0,0,1,24.65-4.79,157.26,157.26,0,0,1,22.76-.29c19.67,1,38.88,4.43,57.19,12a147.42,147.42,0,0,1,45.36,29.58c11.63,11,21.63,23.31,30.95,36.26,10.74,14.94,20.5,30.53,30.42,46,11.55,18.05,23.34,36,36.42,53a371.77,371.77,0,0,0,49.59,53c23.79,20.85,44.33,44.5,60.59,71.74A222.68,222.68,0,0,1,823.28,714,179.48,179.48,0,0,1,828,740.88a160.19,160.19,0,0,1,.79,21.79c-.77,18.69-4.45,36.75-12,53.93-11.71,26.45-30.2,47-54.29,62.8A141.5,141.5,0,0,1,717,899.29a126.66,126.66,0,0,1-22,3.26,18.13,18.13,0,0,0-2.77.56Z"/><path d="M985,360.71a10,10,0,0,0-.6,2.22c-.67,21.88-6.16,42.61-14.92,62.54A181.09,181.09,0,0,1,939,473.21c-16.38,18.45-35.59,33-58.76,42a111.37,111.37,0,0,1-30.43,7.27c-17.68,1.59-34.59-1.07-50.46-9.26s-28-20.29-36.89-35.7a117.28,117.28,0,0,1-14-40.54,144.26,144.26,0,0,1-1.76-28.9,169.61,169.61,0,0,1,6.84-41.27,185.49,185.49,0,0,1,35.79-67c14.26-17.09,31.13-31,51.17-40.88a115.28,115.28,0,0,1,38.1-11.62c27.2-3.09,51.56,3.54,72.18,22.06,12.41,11.14,20.8,25,26.41,40.6a122.17,122.17,0,0,1,6.77,30.8c.21,2.47.24,4.95.44,7.41a15.36,15.36,0,0,0,.61,2.47Z"/><path d="M772.26,139.68a220.79,220.79,0,0,1-20.19,92,191.31,191.31,0,0,1-32.27,49.41,146.47,146.47,0,0,1-41.14,32.24,105.13,105.13,0,0,1-33.29,11.08c-27.61,4-52.31-2.82-73.88-20.57-12.09-9.95-21.35-22.21-28.62-36a161.37,161.37,0,0,1-16.19-48.94,173.35,173.35,0,0,1-2.48-24.05c-.14-4.79-.47-9.6-.24-14.38q.52-10.76,1.74-21.48a208.61,208.61,0,0,1,10.62-45.64c9.26-26.52,22.87-50.48,42.15-71.05,12.2-13,26.07-23.82,42.21-31.59a102.78,102.78,0,0,1,35-10.18c27.73-2.66,51.92,5.63,72.53,24.26,14.28,12.9,24.23,28.8,31.42,46.52a168.77,168.77,0,0,1,10.64,40.21A189.94,189.94,0,0,1,772.26,139.68Z"/><path d="M446,179.1a189,189,0,0,1-9.83,60.77c-5.82,17-14.11,32.72-25.94,46.38C398,300.46,383.18,311,365.08,316.59a88.25,88.25,0,0,1-33.89,3.52c-15.46-1.32-29.76-6.42-43.08-14.31-17.7-10.49-32-24.57-44-41.18-15.47-21.51-25.7-45.39-31.75-71.12a188.77,188.77,0,0,1-4.89-31.45c-.43-7-.86-14-.8-21.06a186.23,186.23,0,0,1,2.17-26.24,176.11,176.11,0,0,1,8.33-33.42c6-16.79,14.47-32.21,26.41-45.57S269.82,12.44,287.06,7a89.39,89.39,0,0,1,30.75-3.84,95,95,0,0,1,35.4,8.65c17.36,7.81,31.89,19.4,44.48,33.54,16.27,18.29,27.87,39.3,36,62.29A209.3,209.3,0,0,1,443.2,145c1,6.37,1.58,12.83,2.13,19.27C445.74,169.19,445.81,174.15,446,179.1Z"/><path d="M229.08,409.57A144.77,144.77,0,0,1,221,458c-5.22,14.65-12.88,27.87-23.84,39a85.1,85.1,0,0,1-43,23.85,86.54,86.54,0,0,1-24.06,1.82,103.86,103.86,0,0,1-35-8.51,136.39,136.39,0,0,1-40.6-27.27C32.19,465.5,17.1,439.68,7.91,410.29a177.58,177.58,0,0,1-6.88-33A158.71,158.71,0,0,1,.27,350c1.29-22.61,6.93-44,19.4-63.19,11.21-17.24,26.25-29.75,45.84-36.51a83.94,83.94,0,0,1,20.59-4.22c18.85-1.56,36.5,2.69,53.34,10.88,18.64,9.08,34.19,22.07,47.44,37.89,18,21.52,30.07,46.09,37,73.23a151.71,151.71,0,0,1,4.6,28.82C228.67,401.12,228.86,405.35,229.08,409.57Z"/></g></g></svg>