<svg
  width="33"
  height="33"
  viewBox="0 0 33 33"
  fill="none"
  xmlns="http://www.w3.org/2000/svg"
>
  <path
    d="M20.8648 18.194L5.57577 31.6769C5.09213 32.1018 4.46512 32.327 3.82168 32.3069C3.17825 32.2869 2.56648 32.0231 2.11025 31.5689L0.907507 30.3743C0.34824 29.815 0.0240228 29.063 0.00128224 28.2724C-0.0214583 27.4818 0.259 26.7124 0.785194 26.1219L13.9807 11.3078C14.0398 11.2416 14.1119 11.1882 14.1924 11.1508C14.2729 11.1134 14.3602 11.0928 14.4489 11.0903C14.5377 11.0879 14.626 11.1035 14.7085 11.1364C14.7909 11.1692 14.8659 11.2185 14.9286 11.2813L20.8954 17.2441C20.9583 17.3071 21.0076 17.3824 21.0403 17.4652C21.073 17.548 21.0883 17.6367 21.0855 17.7257C21.0826 17.8146 21.0616 17.9021 21.0236 17.9827C20.9857 18.0632 20.9316 18.1351 20.8648 18.194Z"
    fill="#7C6CC9"
  />
  <path
    d="M32.5154 7.09209C32.5151 7.40707 32.494 7.72169 32.4522 8.0339C32.4522 8.0339 32.4522 8.04409 32.4522 8.04817C32.2397 9.59874 31.515 11.0338 30.3933 12.1253C30.3659 12.1517 30.3294 12.1664 30.2914 12.1664C30.2533 12.1664 30.2168 12.1517 30.1894 12.1253L29.8735 11.8113L29.0886 11.0265L29.0723 11.0102L21.2504 3.1842L21.2341 3.1679L20.6429 2.57672L20.2882 2.22201C20.2618 2.19465 20.2471 2.15811 20.2471 2.12008C20.2471 2.08206 20.2618 2.04552 20.2882 2.01816C21.2965 1.04675 22.5659 0.390092 23.9413 0.128428H23.9556C24.4031 0.0431465 24.8577 0.000147692 25.3132 0C29.2904 0 32.5154 3.17605 32.5154 7.09209Z"
    fill="#7C6CC9"
  />
  <path
    d="M23.3736 16.0556C25.2347 16.0511 27.0203 15.3196 28.3497 14.0171C28.3784 13.9885 28.4012 13.9545 28.4168 13.9171C28.4323 13.8796 28.4403 13.8395 28.4403 13.799C28.4403 13.7584 28.4323 13.7183 28.4168 13.6809C28.4012 13.6434 28.3784 13.6094 28.3497 13.5808L18.8154 4.0323C18.7599 3.9767 18.6851 3.94461 18.6065 3.94272C18.5279 3.94082 18.4516 3.96925 18.3934 4.02211C17.077 5.26624 16.2999 6.97628 16.2285 8.78618"
    fill="#7C6CC9"
  />
</svg>
