<svg width="697" height="602" viewBox="0 0 697 602" fill="none" xmlns="http://www.w3.org/2000/svg">
<path d="M407.227 593.493C532.783 568.093 668.678 437.108 675.268 418.176C680.991 401.713 655.699 263.968 655.699 263.947C655.699 263.927 693.9 248.552 693.547 242.788C692.801 230.577 656.152 243.141 656.142 243.141C656.132 243.141 695.814 210.788 685.788 201.629C676.275 192.944 647.063 230.536 647.053 230.536C647.043 230.536 643.264 192.42 636.906 166.777C613.477 72.4991 576.274 16.186 549.994 3.57119C531.544 -5.32565 404.889 144.44 404.829 144.46C404.768 144.48 361.005 131.301 324.064 128.48C283.999 125.457 234.885 132.51 234.875 132.51C234.865 132.51 249.92 135.583 259.936 138.968C279.676 145.639 306.692 159.301 306.702 159.301C306.712 159.301 280.502 158.556 267.463 157.286C250.575 155.593 217.271 149.729 217.261 149.729C217.251 149.729 226.391 157.155 239.682 170.455C239.843 169.599 59.3086 90.9981 44.526 105.688C20.1706 129.87 14.2959 190.183 22.3573 281.288C24.685 307.384 33.9153 338.991 33.9153 339.001C33.9153 339.011 7.08097 332.906 4.11842 340.271C-0.0634149 350.8 39.3365 364.07 39.3365 364.07C39.3365 364.07 -0.970319 370.8 5.12609 381.833C7.64527 386.397 44.3447 380.503 44.3447 380.503C44.3447 380.503 80.0565 523.417 93.0152 536.374C105.974 549.332 282.034 618.814 407.227 593.493Z" fill="#D1CFD0" stroke="black" stroke-width="6" stroke-linecap="round" stroke-linejoin="round"/>
<path d="M434.597 226.255C444.552 225.469 468.495 245.489 472.949 301.822" stroke="black" stroke-width="12" stroke-linecap="round" stroke-linejoin="round"/>
<path d="M435.311 389.672C435.311 389.672 444.632 379.073 454.104 372.644C466.337 364.342 483.599 358.428 483.599 358.428C483.599 358.428 480.112 322.367 476.615 301.651C471.98 274.225 456.331 219.725 427.643 226.194C401.201 232.159 409.505 280.603 413.304 307.807C420.307 358.518 435.311 389.662 435.311 389.672Z" fill="#FFF9DC"/>
<path d="M427.917 248.692C434.971 247.272 444.554 264.411 453.24 304.109C463.075 349.016 461.009 371.455 453.039 373.067C445.068 374.679 434.447 354.8 426.084 309.59C418.697 269.64 420.874 250.113 427.917 248.692Z" fill="black"/>
<path d="M430.082 269.881C432.097 269.468 436.591 276.158 439.756 291.856C442.92 307.554 441.388 315.454 439.373 315.857C437.357 316.26 432.863 309.569 429.699 293.882C426.535 278.194 428.067 270.284 430.082 269.881Z" fill="white"/>
<path d="M474.779 241.346C474.779 241.346 473.379 204.762 449.668 194.333C434.07 187.482 421.262 190.474 419.206 192.892C417.503 194.908 416.919 206.998 416.919 206.998C416.919 206.998 430.815 206.525 447.29 213.598C463.473 220.58 474.779 241.346 474.779 241.346Z" fill="black"/>
<path d="M415.974 194.838C415.974 194.838 433.104 192.571 444.743 196.46C459.545 201.418 474.973 217.267 474.973 217.267" stroke="#D1CFD0" stroke-width="2" stroke-linecap="round" stroke-linejoin="round"/>
<path d="M568.304 178.094C528.189 154.607 482.229 146.325 482.219 146.315C486.055 133.162 491.116 120.398 497.334 108.189C517.487 69.5785 545.128 38.2733 545.128 38.2632C545.128 38.2531 569.775 68.6817 586.593 105.962C612.239 162.769 620.854 222.014 620.854 222.024C620.854 222.034 598.242 195.636 568.304 178.094Z" fill="#BBA29E" stroke="black" stroke-width="6" stroke-linecap="round" stroke-linejoin="round"/>
<path d="M242.098 265.157C232.606 268.3 218.327 296.049 236.052 349.662" stroke="black" stroke-width="12" stroke-linecap="round" stroke-linejoin="round"/>
<path d="M304.867 416.02C304.867 416.02 292.16 409.864 280.935 407.617C266.444 404.705 248.236 405.955 248.236 405.955C248.236 405.955 237.454 371.375 232.637 350.921C226.258 323.848 219.537 267.555 248.488 262.376C275.161 257.61 286.285 305.51 293.39 332.06C306.6 381.481 304.867 416.01 304.867 416.02Z" fill="#FFF9DC"/>
<path d="M256.964 283.222C249.91 284.643 247.734 304.159 255.12 344.079C263.483 389.289 274.104 409.168 282.075 407.556C290.046 405.944 292.152 383.506 282.277 338.598C273.59 298.94 264.007 281.791 256.964 283.222Z" fill="black"/>
<path d="M263.191 303.585C261.175 303.988 259.634 311.897 262.798 327.585C265.962 343.273 270.466 349.973 272.481 349.56C274.497 349.147 276.028 341.248 272.864 325.56C269.7 309.872 265.206 303.172 263.191 303.585Z" fill="white"/>
<path d="M210.913 294.639C210.913 294.639 198.004 260.381 215.82 241.57C227.529 229.197 240.488 226.98 243.329 228.401C245.667 229.58 250.927 240.562 250.927 240.562C250.927 240.562 237.938 245.52 225.494 258.427C213.281 271.112 210.923 294.639 210.913 294.639Z" fill="black"/>
<path d="M366.97 402.186C400.928 395.324 437.557 418.921 446.062 461.048C454.567 503.175 429.99 539.215 396.021 546.047C362.052 552.878 325.434 529.301 316.929 487.174C308.424 445.048 333.011 409.077 366.97 402.186Z" fill="#FFF9DC"/>
<path d="M247.098 228.933C247.098 228.933 230.421 233.497 221.221 241.598C209.502 251.906 201.44 272.49 201.44 272.49" stroke="#D1CFD0" stroke-width="2" stroke-linecap="round" stroke-linejoin="round"/>
<path d="M404.76 405.127C407.38 410.88 379.991 436.271 374.65 437.369C369.31 438.468 334.112 424.996 334.273 419.384C334.414 414.739 352.482 406.8 367.375 403.747C382.591 400.603 402.543 400.251 404.76 405.127Z" fill="#EB7E62" stroke="black" stroke-width="6" stroke-linecap="round" stroke-linejoin="round"/>
<path d="M367.539 407.799C382.241 404.826 389.657 407.396 389.818 410.872C389.979 414.136 383.44 414.388 369.594 416.917C356.374 419.345 350.449 421.361 349.441 418.388C348.433 415.416 353.854 410.559 367.539 407.799Z" fill="#F9CE84"/>
<path d="M549.994 32.4077C549.994 32.4077 547.626 35.1282 546.246 36.7705C543.414 40.1358 541.268 42.8159 538.789 45.8386" stroke="black" stroke-width="6" stroke-linecap="round" stroke-linejoin="round"/>
<path d="M92.7425 268.925C122.62 232.924 163.924 210.123 163.935 210.113C163.945 210.103 147.147 199.423 130.036 187.181C103.071 167.876 82.7263 151.916 70.8156 142.364C67.3089 139.603 62.5426 135.724 62.5426 135.724C62.5426 135.724 49.6243 174.576 47.9516 217.136C45.7246 273.963 59.7514 326.961 59.7514 326.961C59.7514 326.961 71.1482 294.94 92.7425 268.925Z" fill="#BBA29E" stroke="black" stroke-width="6" stroke-linecap="round" stroke-linejoin="round"/>
<path d="M56.5176 131.865C56.5176 131.865 59.2887 133.689 60.8909 134.827C64.6797 137.538 67.5113 139.866 70.8164 142.365" stroke="black" stroke-width="6" stroke-linecap="round" stroke-linejoin="round"/>
<path d="M354.88 459.841L352.068 448.707C352.068 448.707 338.324 454.4 326.06 451.115C314.613 448.032 307.922 435.508 306.098 437.09C303.912 438.944 310.129 452.647 323.995 459.468C338.918 466.823 354.88 459.841 354.88 459.841ZM401.484 450.43L399.751 439.085C399.751 439.085 414.635 438.994 424.651 431.205C434.012 423.921 435.292 409.795 437.62 410.53C440.35 411.397 439.927 426.44 429.81 438.097C418.907 450.672 401.495 450.43 401.484 450.43Z" fill="black"/>
<path d="M333.539 457.945C313.385 452.907 302.049 433.108 302.049 433.108" stroke="#D1CFD0" stroke-width="3" stroke-linecap="round" stroke-linejoin="round"/>
<path d="M421.917 436.755C424.726 435.463 427.237 433.604 429.293 431.294C437.153 422.025 439.037 409.924 439.037 409.924" stroke="#D1CFD0" stroke-width="3" stroke-linecap="round" stroke-linejoin="round"/>
<path d="M62.3428 137.961C62.3428 137.961 92.0288 171.624 97.2989 204.763C102.146 235.202 86.2145 273.116 86.2145 273.126L161.79 209.337L95.7269 160.853C95.7269 160.853 62.3428 137.971 62.3428 137.961Z" fill="#110633" fill-opacity="0.18"/>
<path d="M653.925 254.748C653.925 254.748 654.932 259.897 655.346 261.922C655.809 264.502 656.353 268.048 656.837 271.101" stroke="black" stroke-width="6" stroke-linecap="round" stroke-linejoin="round"/>
<path d="M32.3047 332.322C33.4198 336.655 34.5417 340.991 35.6703 345.331" stroke="black" stroke-width="6" stroke-linecap="round" stroke-linejoin="round"/>
<path d="M49.3032 387.475C51.5503 387.526 68.2676 436.564 68.2676 436.564C68.2676 436.564 69.5372 376.402 75.684 376.11C80.0674 375.929 85.7607 423.97 91.2727 423.053C95.4444 422.368 90.265 386.589 98.7093 386.317C105.38 386.095 118.057 425.612 118.057 425.612C118.057 425.612 119.225 404.675 124.606 402.045C129.302 399.758 135.923 420.735 135.923 420.735C135.923 420.735 138.432 409.299 139.732 409.027C142.311 408.493 147.692 432.282 147.692 432.292L142.362 428.645C142.362 428.645 144.881 463.91 142.694 465.663C135.489 471.335 133.071 437.652 130.471 437.874C127.569 438.126 126.44 470.943 124.566 471.063C123.145 471.164 112.948 447.779 112.948 447.779C112.948 447.779 111.688 489.542 107.466 490.248C100.573 491.437 93.1973 453.502 86.6072 454.58C78.6667 455.889 85.0957 504.404 82.3346 504.223C81.1758 504.152 70.9983 471.537 66.8568 457.31C60.8108 436.574 47.5297 387.435 49.3032 387.475ZM664.375 328.321C664.375 328.321 655.568 265.449 653.009 266.305C650.893 267.02 653.795 318.316 653.795 318.316C653.795 318.316 632.392 261.892 623.565 265.509C619.212 267.282 631.465 313.872 627.414 314.83C624.391 315.565 610.566 282.436 606.253 283.847C601.608 285.378 608.923 326.729 603.683 327.565C600.751 328.029 589.727 308.029 588.498 308.421C587.269 308.814 585.324 330.044 585.324 330.044L577.262 320.724C577.262 320.724 578.129 345.329 578.945 345.258C579.167 345.258 582.452 339.827 582.452 339.827C582.452 339.827 593.234 374.256 596.509 374.085C600.711 373.843 596.993 343.747 596.993 343.747C596.993 343.747 610.314 373.772 615.312 372.039C619.181 370.709 616.985 346.074 616.985 346.074C616.985 346.074 633.631 384.05 638.519 383.042C643.194 382.035 641.38 342.739 643.89 342.054C647.134 341.127 668.628 389.41 671.379 388.191C673.717 387.163 664.375 328.331 664.375 328.321Z" fill="#9D97AB"/>
<path d="M235.843 167.281C235.843 167.281 240.146 170.496 242.151 171.624C246.292 173.952 256.712 177.892 256.712 177.892" stroke="black" stroke-width="6" stroke-linecap="round" stroke-linejoin="round"/>
<path d="M297.968 155.613L320.378 164.551" stroke="black" stroke-width="6" stroke-linecap="round" stroke-linejoin="round"/>
<path d="M545.5 40.3882C545.5 40.3882 531.907 82.7868 539.203 115.513C546.458 148.057 576.486 180.44 576.486 180.451L481.523 144.762L514.031 78.7565L545.5 40.3882Z" fill="#110633" fill-opacity="0.18"/>
<path d="M118.468 137.84L210.347 166.868C210.347 166.868 254.302 180.218 254.503 180.198C255.088 180.118 185.639 147.633 130.731 128.621C60.325 104.237 54.2891 106.756 54.2891 106.746L118.468 137.84Z" fill="#F5F2E8"/>
<path d="M503.641 55.5815L435.009 119.482L406.29 146.968L463.909 80.0654C463.909 80.0654 501.948 38.6946 525.084 20.6188C549.369 1.59585 548.795 6.79492 548.795 6.79492L503.641 55.5815Z" fill="#F5F2E8"/>
<path d="M252.266 133.799C252.266 133.799 287.695 136.086 310.801 138.756C326.259 140.55 346.07 143.955 349.697 144.389C352.781 144.762 377.832 147.472 383.263 147.673C386.78 147.804 405.119 147.28 405.129 147.28C405.139 147.28 353.375 133.174 321.795 130.847C295.918 128.933 252.266 133.799 252.266 133.799Z" fill="#F5F2E8"/>
<path d="M492.295 351.375C492.295 351.375 472.333 354.317 452.825 369.783C445.12 375.816 438.85 383.483 434.465 392.231L456.22 397.269L492.295 351.375Z" fill="#D1CFD0"/>
<path d="M492.295 351.375C492.295 351.375 472.333 354.317 452.825 369.783C445.12 375.816 438.85 383.483 434.465 392.231" stroke="black" stroke-width="6" stroke-linecap="round" stroke-linejoin="round"/>
<path d="M478.933 362.89C486.682 358.769 490.723 360.654 492.093 363.213C493.463 365.772 492.758 370.185 485.039 374.296C477.32 378.407 473.239 376.543 471.879 373.984C470.519 371.425 471.184 367.042 478.933 362.89Z" fill="#F4F4F4"/>
<path d="M238.816 402.569C238.816 402.569 258.355 397.531 282.328 404.201C291.775 406.778 300.534 411.416 307.973 417.783L289.835 430.882L238.816 402.569Z" fill="#D1CFD0"/>
<path d="M238.816 402.569C238.816 402.569 258.355 397.531 282.328 404.201C291.775 406.778 300.534 411.416 307.973 417.783" stroke="black" stroke-width="6" stroke-linecap="round" stroke-linejoin="round"/>
<path d="M244.556 470.026C244.556 470.026 235.266 447.053 236.495 444.675C238.51 440.867 264.286 439.023 278.182 436.192M505.513 390.337C492.413 405.209 477.056 433.008 462.122 445.703C434.643 469.069 332.314 489.714 297.973 478.852C279.281 472.948 254.351 453.29 236.505 444.675M507.941 416.826C507.941 416.826 507.589 392.06 505.523 390.337C502.218 387.597 477.711 395.919 463.805 398.71" stroke="black" stroke-width="6" stroke-linecap="round" stroke-linejoin="round"/>
<path d="M505.98 418.821C505.154 418.972 498.765 405.471 494.613 403.023C488.194 399.224 464.625 400.574 464.625 400.574L506.887 389.088C506.887 389.088 507.249 418.6 505.98 418.821Z" fill="#110633" fill-opacity="0.18"/>
<path d="M247.854 470.942C248.67 470.761 249.325 455.829 252.207 451.97C256.641 445.995 278.89 438.085 278.89 438.085L235.479 443.909C235.479 443.909 246.594 471.235 247.854 470.942Z" fill="#110633" fill-opacity="0.18"/>
<path d="M180.733 200.258C180.733 200.258 175.836 202.737 171.553 205.226C166.182 208.34 160.469 212.128 160.469 212.128" stroke="black" stroke-width="6" stroke-linecap="round" stroke-linejoin="round"/>
<path d="M535.724 534.47C534.958 532.344 574.852 499.044 574.852 499.034C574.852 499.024 518.291 519.619 515.833 514.027C514.079 509.996 556.794 487.306 553.963 482.5C551.807 478.862 520.337 496.656 517.012 488.868C514.392 482.721 546.647 456.625 546.657 456.625C546.667 456.625 526.705 463.114 522.322 459.044C518.483 455.487 535.643 441.734 535.643 441.734C535.643 441.734 524.075 443.527 523.35 442.419C521.919 440.212 542.153 426.58 542.163 426.58L540.692 432.877C540.692 432.877 572.685 417.763 575.084 419.174C582.984 423.829 552.451 438.267 553.6 440.615C554.88 443.225 585.906 432.444 586.682 434.116C587.287 435.406 569.179 453.371 569.169 453.371C569.159 453.371 608.569 439.436 610.745 443.114C614.343 449.159 581.583 469.744 585.009 475.477C589.161 482.419 631.957 457.865 632.853 460.505C633.226 461.613 606.563 483.679 594.703 492.898C577.573 506.198 536.319 536.223 535.724 534.521M204.2 575.378C204.2 575.378 265.507 590.864 265.719 588.174C265.9 585.967 217.602 568.899 217.592 568.899C217.582 568.899 277.881 571.831 278.113 562.239C278.224 557.544 230.632 550.148 231.357 546.118C231.911 543.004 267.794 543.619 268.198 539.145C268.651 534.269 227.82 524.445 229.14 519.306C229.886 516.445 252.629 514.319 252.79 513.059C252.951 511.8 234.239 501.503 234.239 501.503L245.999 497.845C245.999 497.845 223.094 488.777 222.822 489.593C222.752 489.795 226.399 494.974 226.399 494.974C226.399 494.974 190.526 491.104 189.388 494.178C187.937 498.127 217.018 506.742 217.018 506.742C217.018 506.742 184.168 506.954 183.765 512.233C183.442 516.263 206.941 524.143 206.941 524.143C206.941 524.143 165.405 524.233 164.407 529.09C163.4 533.775 200.18 547.811 199.837 550.39C199.394 553.745 146.592 554.168 146.562 557.161C146.521 559.619 204.21 575.327 204.22 575.327L204.2 575.378Z" fill="#9D97AB"/>
</svg>
