<svg width="697" height="367" viewBox="0 0 697 367" fill="none" xmlns="http://www.w3.org/2000/svg">
<path d="M407.227 410.493C532.783 385.093 668.678 254.108 675.268 235.176C680.991 218.713 655.699 80.9676 655.699 80.9475C655.699 80.9273 693.9 65.5518 693.547 59.7885C692.801 47.5767 656.152 60.1411 656.142 60.1411C656.132 60.1411 695.814 27.7881 685.788 18.6292C676.275 9.94399 647.063 47.5364 647.053 47.5364C647.043 47.5364 643.264 9.42006 636.906 -16.2226C613.477 -110.501 576.274 -166.814 549.994 -179.429C531.544 -188.326 404.889 -38.5604 404.829 -38.5403C404.768 -38.5201 361.005 -51.6991 324.064 -54.5203C283.999 -57.543 234.885 -50.4901 234.875 -50.4901C234.865 -50.4901 249.92 -47.417 259.936 -44.0315C279.676 -37.3614 306.692 -23.6988 306.702 -23.6988C306.712 -23.6988 280.502 -24.4444 267.463 -25.7139C250.575 -27.4066 217.271 -33.2707 217.261 -33.2707C217.251 -33.2707 226.391 -25.8449 239.682 -12.545C239.843 -13.4014 59.3086 -92.0019 44.526 -77.3116C20.1706 -53.1299 14.2959 7.18327 22.3573 98.2878C24.685 124.384 33.9153 155.991 33.9153 156.001C33.9153 156.011 7.08097 149.906 4.11842 157.271C-0.0634149 167.8 39.3365 181.07 39.3365 181.07C39.3365 181.07 -0.970319 187.8 5.12609 198.833C7.64527 203.397 44.3447 197.503 44.3447 197.503C44.3447 197.503 80.0565 340.417 93.0152 353.374C105.974 366.332 282.034 435.814 407.227 410.493Z" fill="#D1CFD0" stroke="black" stroke-width="6" stroke-linecap="round" stroke-linejoin="round"/>
<path d="M434.597 43.2546C444.552 42.4687 468.495 62.4891 472.949 118.822" stroke="black" stroke-width="12" stroke-linecap="round" stroke-linejoin="round"/>
<path d="M435.311 206.672C435.311 206.672 444.632 196.072 454.104 189.644C466.337 181.342 483.599 175.427 483.599 175.427C483.599 175.427 480.112 139.366 476.615 118.651C471.98 91.2246 456.331 36.7251 427.643 43.1937C401.201 49.1585 409.505 97.6025 413.304 124.807C420.307 175.518 435.311 206.662 435.311 206.672Z" fill="#FFF9DC"/>
<path d="M427.917 65.6927C434.971 64.272 444.554 81.4108 453.24 121.109C463.075 166.016 461.009 188.455 453.039 190.067C445.068 191.679 434.447 171.8 426.084 126.59C418.697 86.6401 420.874 67.1133 427.917 65.6927Z" fill="black"/>
<path d="M430.082 86.8813C432.097 86.4681 436.591 93.1584 439.756 108.856C442.92 124.554 441.388 132.454 439.373 132.857C437.357 133.26 432.863 126.569 429.699 110.882C426.535 95.1937 428.067 87.2843 430.082 86.8813Z" fill="white"/>
<path d="M474.779 58.3462C474.779 58.3462 473.379 21.7613 449.668 11.333C434.07 4.48148 421.262 7.47396 419.206 9.89213C417.503 11.9073 416.919 23.9981 416.919 23.9981C416.919 23.9981 430.815 23.5246 447.29 30.5977C463.473 37.5802 474.779 58.3462 474.779 58.3462Z" fill="black"/>
<path d="M415.974 11.8385C415.974 11.8385 433.104 9.57146 444.743 13.4607C459.545 18.4179 474.973 34.267 474.973 34.267" stroke="#D1CFD0" stroke-width="2" stroke-linecap="round" stroke-linejoin="round"/>
<path d="M568.304 -4.9062C528.189 -28.3927 482.229 -36.6749 482.219 -36.685C486.055 -49.8379 491.116 -62.6025 497.334 -74.8114C517.487 -113.422 545.128 -144.727 545.128 -144.737C545.128 -144.747 569.775 -114.318 586.593 -77.0382C612.239 -20.2313 620.854 39.0138 620.854 39.0239C620.854 39.034 598.242 12.6356 568.304 -4.9062Z" fill="#BBA29E" stroke="black" stroke-width="6" stroke-linecap="round" stroke-linejoin="round"/>
<path d="M242.098 82.1567C232.606 85.3004 218.327 113.049 236.052 166.662" stroke="black" stroke-width="12" stroke-linecap="round" stroke-linejoin="round"/>
<path d="M304.867 233.02C304.867 233.02 292.16 226.864 280.935 224.617C266.444 221.705 248.236 222.955 248.236 222.955C248.236 222.955 237.454 188.375 232.637 167.921C226.258 140.848 219.537 84.555 248.488 79.3761C275.161 74.6103 286.285 122.51 293.39 149.06C306.6 198.481 304.867 233.01 304.867 233.02Z" fill="#FFF9DC"/>
<path d="M256.964 100.222C249.91 101.643 247.734 121.159 255.12 161.079C263.483 206.289 274.104 226.168 282.075 224.556C290.046 222.944 292.152 200.506 282.277 155.598C273.59 115.94 264.007 98.7913 256.964 100.222Z" fill="black"/>
<path d="M263.191 120.585C261.175 120.988 259.634 128.897 262.798 144.585C265.962 160.273 270.466 166.973 272.481 166.56C274.497 166.147 276.028 158.248 272.864 142.56C269.7 126.872 265.206 120.172 263.191 120.585Z" fill="white"/>
<path d="M210.913 111.639C210.913 111.639 198.004 77.3814 215.82 58.57C227.529 46.1971 240.488 43.9804 243.329 45.4011C245.667 46.5799 250.927 57.5625 250.927 57.5625C250.927 57.5625 237.938 62.5197 225.494 75.4267C213.281 88.112 210.923 111.639 210.913 111.639Z" fill="black"/>
<path d="M366.97 219.186C400.928 212.324 437.557 235.921 446.062 278.048C454.567 320.175 429.99 356.215 396.021 363.047C362.052 369.878 325.434 346.301 316.929 304.174C308.424 262.048 333.011 226.077 366.97 219.186Z" fill="#FFF9DC"/>
<path d="M247.098 45.9331C247.098 45.9331 230.421 50.4974 221.221 58.5983C209.502 68.9057 201.44 89.4904 201.44 89.4904" stroke="#D1CFD0" stroke-width="2" stroke-linecap="round" stroke-linejoin="round"/>
<path d="M404.76 222.127C407.38 227.88 379.991 253.271 374.65 254.369C369.31 255.468 334.112 241.996 334.273 236.384C334.414 231.739 352.482 223.8 367.375 220.747C382.591 217.603 402.543 217.251 404.76 222.127Z" fill="#EB7E62" stroke="black" stroke-width="6" stroke-linecap="round" stroke-linejoin="round"/>
<path d="M367.539 224.798C382.241 221.826 389.657 224.395 389.818 227.871C389.979 231.136 383.44 231.388 369.594 233.917C356.374 236.345 350.449 238.36 349.441 235.388C348.433 232.416 353.854 227.559 367.539 224.798Z" fill="#F9CE84"/>
<path d="M92.7425 85.9249C122.62 49.9244 163.924 27.1231 163.935 27.113C163.945 27.103 147.147 16.4227 130.036 4.18074C103.071 -15.1243 82.7263 -31.0842 70.8156 -40.636C67.3089 -43.3967 62.5426 -47.2759 62.5426 -47.2759C62.5426 -47.2759 49.6243 -8.42397 47.9516 34.1358C45.7246 90.9628 59.7514 143.961 59.7514 143.961C59.7514 143.961 71.1482 111.94 92.7425 85.9249Z" fill="#BBA29E" stroke="black" stroke-width="6" stroke-linecap="round" stroke-linejoin="round"/>
<path d="M354.88 276.841L352.068 265.707C352.068 265.707 338.324 271.4 326.06 268.115C314.613 265.032 307.922 252.508 306.098 254.09C303.912 255.944 310.129 269.647 323.995 276.468C338.918 283.823 354.88 276.841 354.88 276.841ZM401.484 267.43L399.751 256.085C399.751 256.085 414.635 255.994 424.651 248.205C434.012 240.921 435.292 226.795 437.62 227.53C440.35 228.397 439.927 243.44 429.81 255.097C418.907 267.672 401.495 267.43 401.484 267.43Z" fill="black"/>
<path d="M333.539 274.945C313.385 269.907 302.049 250.108 302.049 250.108" stroke="#D1CFD0" stroke-width="3" stroke-linecap="round" stroke-linejoin="round"/>
<path d="M421.917 253.755C424.726 252.463 427.237 250.604 429.293 248.294C437.153 239.025 439.037 226.924 439.037 226.924" stroke="#D1CFD0" stroke-width="3" stroke-linecap="round" stroke-linejoin="round"/>
<path d="M62.3428 -45.0391C62.3428 -45.0391 92.0288 -11.3761 97.2989 21.7628C102.146 52.2015 86.2145 90.1164 86.2145 90.1265L161.79 26.3372L95.7269 -22.1471C95.7269 -22.1471 62.3428 -45.029 62.3428 -45.0391Z" fill="#110633" fill-opacity="0.18"/>
<path d="M653.925 71.7485C653.925 71.7485 654.932 76.8972 655.346 78.9224C655.809 81.5018 656.353 85.0485 656.837 88.1014" stroke="black" stroke-width="6" stroke-linecap="round" stroke-linejoin="round"/>
<path d="M32.3047 149.322C33.4198 153.655 34.5417 157.991 35.6703 162.331" stroke="black" stroke-width="6" stroke-linecap="round" stroke-linejoin="round"/>
<path d="M49.3032 204.475C51.5503 204.526 68.2676 253.564 68.2676 253.564C68.2676 253.564 69.5372 193.402 75.684 193.11C80.0674 192.929 85.7607 240.97 91.2727 240.053C95.4444 239.368 90.265 203.589 98.7093 203.317C105.38 203.095 118.057 242.612 118.057 242.612C118.057 242.612 119.225 221.675 124.606 219.045C129.302 216.758 135.923 237.735 135.923 237.735C135.923 237.735 138.432 226.299 139.732 226.027C142.311 225.493 147.692 249.282 147.692 249.292L142.362 245.645C142.362 245.645 144.881 280.91 142.694 282.663C135.489 288.335 133.071 254.652 130.471 254.874C127.569 255.126 126.44 287.943 124.566 288.063C123.145 288.164 112.948 264.779 112.948 264.779C112.948 264.779 111.688 306.542 107.466 307.248C100.573 308.437 93.1973 270.502 86.6072 271.58C78.6667 272.889 85.0957 321.404 82.3346 321.223C81.1758 321.152 70.9983 288.537 66.8568 274.31C60.8108 253.574 47.5297 204.435 49.3032 204.475ZM664.375 145.321C664.375 145.321 655.568 82.4486 653.009 83.305C650.893 84.0204 653.795 135.316 653.795 135.316C653.795 135.316 632.392 78.8919 623.565 82.5091C619.212 84.2824 631.465 130.872 627.414 131.83C624.391 132.565 610.566 99.4362 606.253 100.847C601.608 102.378 608.923 143.729 603.683 144.565C600.751 145.029 589.727 125.029 588.498 125.421C587.269 125.814 585.324 147.044 585.324 147.044L577.262 137.724C577.262 137.724 578.129 162.329 578.945 162.258C579.167 162.258 582.452 156.827 582.452 156.827C582.452 156.827 593.234 191.256 596.509 191.085C600.711 190.843 596.993 160.747 596.993 160.747C596.993 160.747 610.314 190.772 615.312 189.039C619.181 187.709 616.985 163.074 616.985 163.074C616.985 163.074 633.631 201.05 638.519 200.042C643.194 199.035 641.38 159.739 643.89 159.054C647.134 158.127 668.628 206.41 671.379 205.191C673.717 204.163 664.375 145.331 664.375 145.321Z" fill="#9D97AB"/>
<path d="M492.295 168.375C492.295 168.375 472.333 171.317 452.825 186.783C445.12 192.816 438.85 200.483 434.465 209.231L456.22 214.269L492.295 168.375Z" fill="#D1CFD0"/>
<path d="M492.295 168.375C492.295 168.375 472.333 171.317 452.825 186.783C445.12 192.816 438.85 200.483 434.465 209.231" stroke="black" stroke-width="6" stroke-linecap="round" stroke-linejoin="round"/>
<path d="M478.933 179.89C486.682 175.769 490.723 177.654 492.093 180.213C493.463 182.772 492.758 187.185 485.039 191.296C477.32 195.407 473.239 193.543 471.879 190.984C470.519 188.425 471.184 184.042 478.933 179.89Z" fill="#F4F4F4"/>
<path d="M238.816 219.569C238.816 219.569 258.355 214.531 282.328 221.201C291.775 223.778 300.534 228.416 307.973 234.783L289.835 247.882L238.816 219.569Z" fill="#D1CFD0"/>
<path d="M238.816 219.569C238.816 219.569 258.355 214.531 282.328 221.201C291.775 223.778 300.534 228.416 307.973 234.783" stroke="black" stroke-width="6" stroke-linecap="round" stroke-linejoin="round"/>
<path d="M244.556 287.026C244.556 287.026 235.266 264.053 236.495 261.675C238.51 257.867 264.286 256.023 278.182 253.192M505.513 207.337C492.413 222.209 477.056 250.008 462.122 262.703C434.643 286.069 332.314 306.714 297.973 295.852C279.281 289.948 254.351 270.29 236.505 261.675M507.941 233.826C507.941 233.826 507.589 209.06 505.523 207.337C502.218 204.597 477.711 212.919 463.805 215.71" stroke="black" stroke-width="6" stroke-linecap="round" stroke-linejoin="round"/>
<path d="M505.98 235.821C505.154 235.972 498.765 222.471 494.613 220.023C488.194 216.224 464.625 217.574 464.625 217.574L506.887 206.088C506.887 206.088 507.249 235.6 505.98 235.821Z" fill="#110633" fill-opacity="0.18"/>
<path d="M247.854 287.942C248.67 287.761 249.325 272.829 252.207 268.97C256.641 262.995 278.89 255.085 278.89 255.085L235.479 260.909C235.479 260.909 246.594 288.235 247.854 287.942Z" fill="#110633" fill-opacity="0.18"/>
<path d="M180.733 17.2583C180.733 17.2583 175.836 19.7372 171.553 22.2261C166.182 25.3398 160.469 29.1287 160.469 29.1287" stroke="black" stroke-width="6" stroke-linecap="round" stroke-linejoin="round"/>
<path d="M535.724 351.47C534.958 349.344 574.852 316.044 574.852 316.034C574.852 316.024 518.291 336.619 515.833 331.027C514.079 326.996 556.794 304.306 553.963 299.5C551.807 295.862 520.337 313.656 517.012 305.868C514.392 299.721 546.647 273.625 546.657 273.625C546.667 273.625 526.705 280.114 522.322 276.044C518.483 272.487 535.643 258.734 535.643 258.734C535.643 258.734 524.075 260.527 523.35 259.419C521.919 257.212 542.153 243.58 542.163 243.58L540.692 249.877C540.692 249.877 572.685 234.763 575.084 236.174C582.984 240.829 552.451 255.267 553.6 257.615C554.88 260.225 585.906 249.444 586.682 251.116C587.287 252.406 569.179 270.371 569.169 270.371C569.159 270.371 608.569 256.436 610.745 260.114C614.343 266.159 581.583 286.744 585.009 292.477C589.161 299.419 631.957 274.865 632.853 277.505C633.226 278.613 606.563 300.679 594.703 309.898C577.573 323.198 536.319 353.223 535.724 351.521M204.2 392.378C204.2 392.378 265.507 407.864 265.719 405.174C265.9 402.967 217.602 385.899 217.592 385.899C217.582 385.899 277.881 388.831 278.113 379.239C278.224 374.544 230.632 367.148 231.357 363.118C231.911 360.004 267.794 360.619 268.198 356.145C268.651 351.269 227.82 341.445 229.14 336.306C229.886 333.445 252.629 331.319 252.79 330.059C252.951 328.8 234.239 318.503 234.239 318.503L245.999 314.845C245.999 314.845 223.094 305.777 222.822 306.593C222.752 306.795 226.399 311.974 226.399 311.974C226.399 311.974 190.526 308.104 189.388 311.178C187.937 315.127 217.018 323.742 217.018 323.742C217.018 323.742 184.168 323.954 183.765 329.233C183.442 333.263 206.941 341.143 206.941 341.143C206.941 341.143 165.405 341.233 164.407 346.09C163.4 350.775 200.18 364.811 199.837 367.39C199.394 370.745 146.592 371.168 146.562 374.161C146.521 376.619 204.21 392.327 204.22 392.327L204.2 392.378Z" fill="#9D97AB"/>
</svg>
