<svg xmlns="http://www.w3.org/2000/svg" viewBox="0 0 657.94 353.73"><defs><style>.cls-1{fill:#d1cfd0;}.cls-10,.cls-12,.cls-15,.cls-2,.cls-6{fill:none;}.cls-12,.cls-2,.cls-7,.cls-8{stroke:#010101;}.cls-10,.cls-12,.cls-2,.cls-6,.cls-7,.cls-8{stroke-linecap:round;stroke-linejoin:round;}.cls-2{stroke-width:12px;}.cls-3{fill:#fff9de;}.cls-4{fill:#010101;}.cls-5{fill:#fff;}.cls-10,.cls-6{stroke:#d1cfd0;}.cls-6{stroke-width:2px;}.cls-7{fill:#bba39e;}.cls-12,.cls-7,.cls-8{stroke-width:6px;}.cls-8{fill:#ec7f63;}.cls-9{fill:#face85;}.cls-10{stroke-width:3px;}.cls-11{fill:#1a1430;fill-opacity:0.18;}.cls-13{fill:#9e98ab;}.cls-14{fill:#f4f3f4;}.cls-15{stroke:#1d1d1b;stroke-miterlimit:10;stroke-width:6px;}</style></defs><g id="Réteg_2" data-name="Réteg 2"><g id="Réteg_1" data-name="Réteg 1"><path class="cls-1" d="M619.16,83.75l.12.68c1.84,10.1,23.56,130.19,18.38,145.09C633.34,241.93,570.2,305.32,492.3,351H370a57.3,57.3,0,0,1-14.86,0H105c-9.48-4.28-15.68-7.74-17.7-9.76-12.25-12.25-46-147.33-46-147.33s-34.69,5.57-37.07,1.26c-5.77-10.43,32.33-16.79,32.33-16.79S-.65,165.84,3.3,155.89c2.8-7,28.17-1.2,28.17-1.21s-8.73-29.88-10.93-54.54c-3.39-38.28-4.17-70.81-2-97.14H603.85C608.37,25.8,611,52.17,611,52.17s27.62-35.53,36.61-27.33c9.41,8.6-27.51,38.82-28,39.23.72-.24,34.65-11.75,35.35-.32C655.27,69.19,619.16,83.73,619.16,83.75Z"/><path class="cls-2" d="M410.19,48.12c9.41-.74,32,18.18,36.25,71.42"/><path class="cls-3" d="M410.86,202.58s8.81-10,17.76-16.1c11.57-7.84,27.88-13.43,27.88-13.43s-3.29-34.09-6.6-53.67C445.52,93.46,430.73,42,403.61,48.06c-25,5.64-17.14,51.43-13.55,77.14C396.68,173.13,410.86,202.57,410.86,202.58Z"/><path class="cls-4" d="M403.87,69.33c6.67-1.35,15.73,14.85,23.94,52.38,9.29,42.44,7.34,63.65-.19,65.17s-17.58-17.26-25.48-60C395.16,89.13,397.22,70.67,403.87,69.33Z"/><path class="cls-5" d="M405.92,89.35c1.9-.39,6.15,5.94,9.14,20.77s1.54,22.31-.36,22.69-6.15-5.94-9.14-20.77S404,89.74,405.92,89.35Z"/><path class="cls-4" d="M448.17,62.38S446.84,27.8,424.43,18c-14.74-6.48-26.85-3.65-28.79-1.36-1.61,1.9-2.16,13.33-2.16,13.33a73.84,73.84,0,0,1,28.7,6.24C437.48,42.76,448.17,62.38,448.17,62.38Z"/><path class="cls-6" d="M392.58,18.43s16.2-2.15,27.2,1.53c14,4.68,28.57,19.66,28.57,19.66"/><path class="cls-7" d="M577.53,3c6.24,24.18,8.7,41.11,8.7,41.12s-21-24.54-49-41.12"/><path class="cls-2" d="M228.24,84.89c-9,3-22.47,29.2-5.71,79.87"/><path class="cls-3" d="M287.57,227.48s-12-5.82-22.62-7.94C251.25,216.79,234,218,234,218s-10.19-32.69-14.74-52c-6-25.59-12.38-78.79,15-83.69,25.21-4.5,35.72,40.77,42.44,65.86C289.21,194.84,287.57,227.47,287.57,227.48Z"/><path class="cls-4" d="M242.29,102c-6.67,1.35-8.72,19.79-1.74,57.52,7.9,42.74,17.94,61.53,25.48,60s9.52-22.73.19-65.18C258,116.82,249,100.61,242.29,102Z"/><path class="cls-5" d="M248.18,121.21c-1.91.38-3.37,7.86-.37,22.68s7.24,21.17,9.15,20.78,3.35-7.86.36-22.69S250.08,120.82,248.18,121.21Z"/><path class="cls-4" d="M198.76,112.75s-12.2-32.37,4.64-50.15c11.07-11.7,23.32-13.79,26-12.45,2.21,1.11,7.19,11.49,7.19,11.49a74.06,74.06,0,0,0-24,16.89C201,90.52,198.77,112.75,198.76,112.75Z"/><path class="cls-3" d="M373.72,350.38c-1.24.25-2.48.45-3.72.62a57.3,57.3,0,0,1-14.86,0c-25.85-3.37-49.68-24.11-56.17-56.27q-.54-2.64-.88-5.23a75.24,75.24,0,0,1,.76-25.3c.3-1.43.63-2.85,1-4.24.24-.88.49-1.75.77-2.62a65.82,65.82,0,0,1,15-25.75A60.28,60.28,0,0,1,327.31,222a56.28,56.28,0,0,1,37.17-8.28,60.28,60.28,0,0,1,17.59,5,66,66,0,0,1,23.38,18c.63.77,1.25,1.55,1.86,2.35.85,1.11,1.66,2.26,2.45,3.43a75.55,75.55,0,0,1,10.17,22.77c.4,1.54.77,3.11,1.09,4.71C429.06,309.86,405.83,343.92,373.72,350.38Z"/><path class="cls-6" d="M233,50.65s-15.77,4.32-24.46,12c-11.08,9.74-18.7,29.2-18.7,29.2"/><path class="cls-8" d="M382,217.19c2.48,5.43-23.41,29.43-28.45,30.47s-38.32-11.69-38.17-17c.14-4.39,17.21-11.89,31.29-14.78C361,212.91,379.89,212.58,382,217.19Z"/><path class="cls-9" d="M346.8,219.71c13.9-2.81,20.91-.38,21.06,2.9.15,3.09-6,3.33-19.11,5.72-12.5,2.29-18.1,4.2-19.05,1.39S333.87,222.32,346.8,219.71Z"/><path class="cls-7" d="M111,3q5.43,4,11.32,8.19c8.33,6,16.58,11.53,22.63,15.53h0c5,3.29,8.44,5.52,9.23,6l.17.11s-1.13.63-3.14,1.82l-.14.09c-1.79,1.07-4.24,2.57-7.19,4.49-12.64,8.19-34.52,23.85-53,44.69q-2,2.2-3.86,4.5C66.66,113,55.89,143.3,55.89,143.3S42.63,93.21,44.73,39.5A277.34,277.34,0,0,1,48.78,3"/><path class="cls-4" d="M414,223.57h0a1.83,1.83,0,0,0-1-1.27c-1.73-.54-2.85,7.64-7.59,14.49a22.26,22.26,0,0,1-4.67,5.05c-9.46,7.37-23.53,7.45-23.53,7.45L378.89,260s16.46.22,26.77-11.66a36.73,36.73,0,0,0,4.1-5.79C414.24,234.7,415,226.66,414,223.57Zm-81.82,34.81s-13,5.38-24.58,2.27a23,23,0,0,1-7-3.31c-6.61-4.49-10.59-11.08-11.9-9.94a1.52,1.52,0,0,0-.41,1.17h0c0,2.93,3.55,10,10.53,15.62a36.23,36.23,0,0,0,6.79,4.35c14.11,6.95,29.2.35,29.2.35Z"/><path class="cls-10" d="M314.67,267.11c-19.05-4.76-29.77-23.48-29.77-23.48"/><path class="cls-10" d="M398.2,247.08a21.12,21.12,0,0,0,7-5.16c7.43-8.76,9.21-20.2,9.21-20.2"/><path class="cls-11" d="M152.33,32.13l-8.44,7.13L90.93,84l-10,8.47S96,56.58,91.38,27.81A94.28,94.28,0,0,0,83.32,3h29.32L145,26.72h0Z"/><path class="cls-12" d="M620.24,90.51c-.31-2-.65-4.13-1-6.08l-.12-.68c-.11-.68-.22-1.33-.33-1.92-.39-1.91-1.34-6.78-1.34-6.78"/><path class="cls-12" d="M30,148.37q1.57,6.15,3.18,12.3"/><path class="cls-13" d="M627.36,144.59S619,85.16,616.62,86c-2,.68.74,49.16.74,49.16S597.13,81.8,588.79,85.22c-4.11,1.68,7.47,45.71,3.64,46.62-2.86.69-15.92-30.62-20-29.29C568,104,575,143.09,570,143.88c-2.77.43-13.19-18.47-14.35-18.1s-3,20.44-3,20.44L545,137.41s.82,23.19,1.59,23.19c.21,0,3.31-5.13,3.31-5.13s10.19,32.54,13.29,32.38c3.89-.23.6-27.56.47-28.65.43,1,12.66,28.32,17.3,26.71,3.66-1.26,1.58-24.54,1.58-24.54s15.74,35.89,20.36,34.94c4.41-.95,2.7-38.09,5.07-38.74,3.07-.88,23.38,44.76,26,43.61C636.19,200.21,627.36,144.6,627.36,144.59ZM139,242.86s-5.09-22.49-7.53-22c-1.23.26-3.6,11.07-3.6,11.07s-6.25-19.83-10.69-17.67c-5.09,2.49-6.19,22.28-6.19,22.28S99,199.2,92.71,199.41c-8,.25-3.09,34.07-7,34.72C80.47,235,75.09,189.59,71,189.76c-5.81.28-7,57.14-7,57.14S48.14,200.55,46,200.5c-1.67,0,10.88,46.41,16.59,66,3.92,13.45,13.54,44.27,14.63,44.34,2.61.17-3.46-45.69,4-46.92,6.23-1,13.2,34.83,19.72,33.71,4-.67,5.18-40.14,5.18-40.14s9.64,22.1,11,22c1.77-.12,2.84-31.13,5.58-31.37,2.46-.21,4.74,31.62,11.55,26.26,2.07-1.65-.31-35-.31-35Z"/><path class="cls-1" d="M464.72,166.38s-18.87,2.78-37.31,17.4A62.6,62.6,0,0,0,410.06,205l20.56,4.76Z"/><path class="cls-12" d="M464.72,166.38s-18.87,2.78-37.31,17.4A62.6,62.6,0,0,0,410.06,205"/><path class="cls-14" d="M452.09,177.26c7.33-3.89,11.15-2.11,12.44.31s.63,6.59-6.67,10.48-11.15,2.12-12.44-.3S444.77,181.19,452.09,177.26Z"/><path class="cls-1" d="M225.14,214.77a87,87,0,0,1,41.12,1.54,62.64,62.64,0,0,1,24.24,12.84l-17.14,12.38Z"/><path class="cls-12" d="M225.14,214.77a87,87,0,0,1,41.12,1.54,62.64,62.64,0,0,1,24.24,12.84"/><path class="cls-12" d="M437.79,211.12c11.92-2.4,32.11-9.09,38.07-8.37h0a2.57,2.57,0,0,1,1.34.46h0c.57.48,1,2.74,1.33,5.73v.16c.79,7.42,1,19.14,1,19.14M223,254.57c4.36,2.1,9.17,4.91,14.21,8,14.45,8.88,30.79,20.16,43.89,24.3a69.79,69.79,0,0,0,17,2.63c33.85,1.75,90.44-9.53,121.84-24.17a74,74,0,0,0,16.27-9.79c10.57-9,21.38-26,31.34-39.88,3.33-4.64,6.57-8.93,9.67-12.45M262.34,246.55c-11.84,2.41-32.8,4.07-38.21,7a1.89,1.89,0,0,0-1.22,2.55h0c.81,5.52,7.65,22.42,7.65,22.42"/><path class="cls-11" d="M477.66,230.13c-.78.14-6.82-12.62-10.75-14.93-6.07-3.59-28.34-2.32-28.34-2.32L478.51,202S478.86,229.92,477.66,230.13Z"/><path class="cls-11" d="M233.68,279.39c.77-.17,1.39-14.28,4.12-17.93C242,255.81,263,248.34,263,248.34l-41,5.5S232.49,279.67,233.68,279.39Z"/><path class="cls-12" d="M170.24,23.55s-4.63,2.34-8.68,4.69c-5.07,3-10.47,6.53-10.47,6.53"/><path class="cls-13" d="M252.91,343.86c.42-4.61-38.17-13.9-36.92-18.75.7-2.71,22.2-4.72,22.35-5.91s-17.53-10.92-17.53-10.92l11.11-3.46s-21.64-8.57-21.9-7.8c-.07.19,3.38,5.09,3.38,5.09s-33.91-3.66-35-.76c-1.37,3.74,26.11,11.88,26.11,11.88s-31.05.2-31.43,5.19c-.3,3.81,21.91,11.26,21.91,11.26s-39.26.08-40.2,4.67c-.72,3.34,18.83,11.69,28.38,16.65h35.09a.68.68,0,0,1-.19-.55C218.61,347.5,252.52,348.09,252.91,343.86Zm299.44-60.18c-3.24-5.42,27.73-24.88,24.32-30.59-2-3.43-38.28,9.33-39.27,9.68.64-.64,17.09-17,16.53-18.18-.73-1.58-30.06,8.61-31.27,6.14-1.08-2.22,27.78-15.87,20.31-20.27-2.27-1.33-32.51,12.95-32.51,12.95l1.39-5.95s-19.13,12.89-17.78,15c.69,1,11.62-.64,11.62-.64s-16.22,13-12.59,16.36c4.14,3.84,23-2.29,23-2.29s-30.5,24.67-28,30.48c3.14,7.36,32.89-9.46,34.93-6,2.67,4.54-37.7,26-36,29.8,2.32,5.28,55.78-14.18,55.78-14.18s-37.71,31.49-37,33.5v.05c.56,1.6,39.55-26.77,55.74-39.34,11.21-8.72,36.41-29.57,36.06-30.62C596.72,267,556.27,290.24,552.35,283.68Z"/><path class="cls-15" d="M105,351c-9.48-4.28-15.68-7.74-17.7-9.76-12.25-12.25-46-147.33-46-147.33s-34.69,5.57-37.07,1.26c-5.77-10.43,32.33-16.79,32.33-16.79S-.66,165.83,3.29,155.88c2.8-7,28.17-1.2,28.17-1.21s-8.73-29.88-10.93-54.54c-3.39-38.28-4.17-70.81-2-97.14"/><path class="cls-15" d="M603.84,3c4.52,22.8,7.13,49.17,7.14,49.17s27.62-35.53,36.61-27.33c9.41,8.6-27.51,38.82-28,39.23.72-.24,34.65-11.75,35.35-.32.33,5.44-35.78,20-35.78,20l.12.68c1.84,10.1,23.56,130.19,18.38,145.09-4.32,12.41-67.46,75.8-145.36,121.48"/></g></g></svg>