<svg width="32" height="40" viewBox="0 0 32 40" fill="none" xmlns="http://www.w3.org/2000/svg">
<path d="M17.6566 5.68896L25.9659 10.0343L13.9636 34.2374L5.6543 29.892L17.6566 5.68896Z" fill="#7C6CC9"/>
<path d="M17.1387 29.6645C18.0758 30.1545 18.8505 30.919 19.365 31.8613C19.8795 32.8036 20.1106 33.8814 20.0291 34.9587C19.9476 36.0359 19.5572 37.0641 18.9073 37.9134C18.2573 38.7627 17.377 39.395 16.3775 39.7303C15.378 40.0656 14.3042 40.0889 13.2918 39.7973C12.2794 39.5056 11.3738 38.9122 10.6895 38.0918C10.0053 37.2715 9.57297 36.2611 9.4473 35.1884C9.32164 34.1156 9.50823 33.0287 9.9835 32.0649C10.2995 31.4241 10.7354 30.8536 11.2662 30.386C11.7969 29.9185 12.4122 29.5631 13.0768 29.3401C13.7414 29.1172 14.4422 29.0311 15.1392 29.0867C15.8362 29.1424 16.5156 29.3388 17.1387 29.6645Z" fill="#7C6CC9"/>
<path d="M7.731 24.7497C8.67146 25.2383 9.44976 26.0027 9.96741 26.946C10.4851 27.8894 10.7188 28.9693 10.6391 30.0492C10.5594 31.129 10.1698 32.1604 9.51954 33.0126C8.86933 33.8649 7.98773 34.4999 6.98629 34.8372C5.98484 35.1744 4.90854 35.1989 3.89356 34.9075C2.87858 34.616 1.97052 34.0217 1.28427 33.1998C0.598013 32.3779 0.1644 31.3653 0.038286 30.2901C-0.0878285 29.2149 0.0992225 28.1255 0.575775 27.1595C1.21421 25.8655 2.32643 24.8848 3.66808 24.4329C5.00972 23.9811 6.47104 24.095 7.731 24.7497Z" fill="#7C6CC9"/>
<path d="M29.0767 5.49902C30.0172 5.9877 30.7955 6.75206 31.3131 7.69539C31.8308 8.63872 32.0645 9.71863 31.9848 10.7985C31.9051 11.8784 31.5155 12.9097 30.8652 13.762C30.215 14.6143 29.3334 15.2492 28.332 15.5865C27.3305 15.9238 26.2542 15.9483 25.2393 15.6568C24.2243 15.3654 23.3162 14.7711 22.63 13.9492C21.9437 13.1273 21.5101 12.1147 21.384 11.0395C21.2579 9.9643 21.4449 8.87482 21.9215 7.90889C22.2367 7.26725 22.6719 6.69581 23.2024 6.22729C23.7328 5.75878 24.3479 5.40239 25.0126 5.17853C25.6772 4.95468 26.3783 4.86776 27.0757 4.92276C27.7731 4.97775 28.4531 5.17358 29.0767 5.49902Z" fill="#7C6CC9"/>
<path d="M19.6683 0.594226C20.6086 1.08374 21.3864 1.8489 21.9033 2.79285C22.4202 3.7368 22.6531 4.81712 22.5723 5.8971C22.4915 6.97707 22.1008 8.00816 21.4496 8.85986C20.7984 9.71157 19.916 10.3456 18.914 10.6818C17.912 11.0179 16.8355 11.041 15.8207 10.7482C14.8059 10.4554 13.8984 9.85982 13.2132 9.03683C12.5279 8.21384 12.0956 7.20044 11.971 6.12488C11.8463 5.04931 12.035 3.95994 12.5131 2.99461C12.8291 2.35378 13.265 1.78327 13.7958 1.31573C14.3265 0.848177 14.9418 0.492762 15.6064 0.269815C16.271 0.0468683 16.9718 -0.0392355 17.6688 0.0164304C18.3658 0.0720962 19.0452 0.268439 19.6683 0.594226Z" fill="#7C6CC9"/>
</svg>
