<svg
  width="1440"
  height="69"
  viewBox="0 0 1440 69"
  fill="none"
  xmlns="http://www.w3.org/2000/svg"
>
  <path
    d="M0 2.57884L32.9617 3.90734L80.5774 1.95367L130.909 2.57884H177.118L228.7 0L261.818 2.57884L320.61 3.90734L392.727 2.57884L457.781 0L523.636 2.57884L568.575 3.90734L605.893 2.6863L654.545 2.57884L695.967 6.28105L751.915 5.14792L785.454 2.57884L836.909 5.04047L871.687 4.50321L916.353 2.54954L962.415 1.95367L1004.95 3.90734L1047.2 2.62769L1095.63 2.38348L1125.86 5.19676L1178.1 2.62769L1211.46 1.58247L1268.06 3.22355L1309.01 2.57884L1337.03 3.79012L1375.01 2.40301L1403.24 3.22355L1439.92 2.57884V65.6531L1384.03 64.9107L1357.65 63.7287L1309.03 65.6824L1266.92 63.2891L1237.96 66.9718L1178.13 65.6824L1152.45 65.8387L1114.35 63.1133L1047.21 65.6824L1019.72 66.3759L981.71 65.78L950.79 67.6165L916.314 65.6628L876.797 66.7764L851.103 68.2319L785.454 65.6531L753.107 63.3966L715.241 67.5872L654.506 65.6335L571.046 64.3734L523.636 65.6531H392.727L320.053 68.2319L261.818 65.6531L225.359 63.084L198.327 65.0376L130.919 65.6726L99.9988 63.7189L43.3367 66.0633L16.9595 64.5297L0 65.6531V2.57884Z"
    fill="#fefdf9"
  />
</svg>
